<svg width="16" height="16" viewBox="0 0 6 6" data-name="Layer 1" xmlns="http://www.w3.org/2000/svg" fill="#3a52ee"><g stroke-width="0"/><g stroke-linecap="round" stroke-linejoin="round"/><defs><clipPath id="a"><path d="M0-.02h6v6H0z" style="fill:none"/></clipPath></defs><title>user-terminal</title><g style="clip-path:url(#a)"><path d="M2.763 5.615a.2.2 0 0 1-.133-.055.19.19 0 0 1 0-.265l.453-.45-.5-.5a.19.19 0 0 1 0-.265.193.193 0 0 1 .268 0l.63.63a.19.19 0 0 1 0 .268l-.585.583a.18.18 0 0 1-.133.055m.279-2.366A1.438 1.438 0 1 1 4.48 1.812 1.44 1.44 0 0 1 3.042 3.25m0-2.5a1.063 1.063 0 1 0 1.063 1.063A1.065 1.065 0 0 0 3.042.75"/><path d="M.792 5.25a.19.19 0 0 1-.188-.188 2.19 2.19 0 0 1 2.188-2.188h.5a.188.188 0 1 1 0 .375h-.5A1.815 1.815 0 0 0 .979 5.062a.19.19 0 0 1-.188.188M5.207 5H4.192a.188.188 0 1 1 0-.375h1.015a.188.188 0 0 1 0 .375"/></g></svg>